<svg id="Engineer-Avatar-Worker-Man-Occupation" height="512" viewBox="0 0 64 64" width="512" xmlns="http://www.w3.org/2000/svg"><path d="m42 41.58v19.42h-36v-19.42a6.013 6.013 0 0 1 4.42-5.79l5.58-1.63v4.84a2 2 0 0 1 4 0v-3l4 3 4-3v3a2 2 0 0 1 4 0v-4.84l5.58 1.63a6.014 6.014 0 0 1 4.39 5.21 5.49 5.49 0 0 1 .03.58z" fill="#3d9ae2"/><path d="m41.97 41h-2.97v4h3 7v-4z" fill="#ff5023"/><path d="m38 49v12h-12v-12l2-4h8z" fill="#ed1c24"/><path d="m58 49v3h-20v-3l-2-4h20z" fill="#e01a22"/><path d="m38 52h20v9h-20z" fill="#ff5023"/><path d="m50 52v1a2 2 0 0 1 -4 0v-2a2.006 2.006 0 0 1 2-2 2.015 2.015 0 0 1 2 2z" fill="#d1d3d4"/><path d="m32 34.16v4.84a2 2 0 0 0 -4 0v-6z" fill="#1e81ce"/><path d="m20 36v3a2 2 0 0 0 -4 0v-4.84l4-1.16z" fill="#1e81ce"/><path d="m35 16a1.986 1.986 0 0 1 -1.47 1.92 1.586 1.586 0 0 1 -.53.08h-18a1.586 1.586 0 0 1 -.53-.08 1.785 1.785 0 0 1 -.88-.51 1.955 1.955 0 0 1 -.59-1.41 2.006 2.006 0 0 1 2-2h18a2.015 2.015 0 0 1 2 2z" fill="#f7910c"/><path d="m25 3h-2a1 1 0 0 0 -1 1v10h4v-10a1 1 0 0 0 -1-1z" fill="#ffa733"/><path d="m28 29v7l-4 3-4-3v-7z" fill="#ffc477"/><path d="m28 29v3.06a8.981 8.981 0 0 1 -8 0v-3.06z" fill="#ffb655"/><path d="m33 18v4a9 9 0 0 1 -13 8.06 9.028 9.028 0 0 1 -5-8.06v-4z" fill="#ffc477"/><path d="m15 18h18v2h-18z" fill="#ffb655"/><path d="m31.64 9.26a8.589 8.589 0 0 0 -2.26-2.47 8.968 8.968 0 0 0 -3.38-1.57v8.78h7a8.837 8.837 0 0 0 -1.36-4.74z" fill="#ff9811"/><path d="m16.36 9.26a8.837 8.837 0 0 0 -1.36 4.74h7v-8.78a8.968 8.968 0 0 0 -3.38 1.57 8.589 8.589 0 0 0 -2.26 2.47z" fill="#ff9811"/><path d="m28 24h-2a2 2 0 0 1 -4 0h-2a4 4 0 0 0 8 0z"/><path d="m19 20h2v2h-2z"/><path d="m27 20h2v2h-2z"/><path d="m58.89 48.55-2-4a.988.988 0 0 0 -.89-.55h-6v-3a1 1 0 0 0 -1-1h-6.19a7.065 7.065 0 0 0 -4.95-5.17l-8.86-2.58v-1.6a10.023 10.023 0 0 0 5-8.65v-3.18a2.986 2.986 0 0 0 -.04-5.65 9.9 9.9 0 0 0 -6.96-8.71v-.46a2.006 2.006 0 0 0 -2-2h-2a2.006 2.006 0 0 0 -2 2v.46a9.9 9.9 0 0 0 -6.96 8.71 2.986 2.986 0 0 0 -.04 5.65v3.18a10.023 10.023 0 0 0 5 8.65v1.6l-8.85 2.58a7.021 7.021 0 0 0 -5.15 6.75v19.42a1 1 0 0 0 1 1h52a1 1 0 0 0 1-1v-12a1 1 0 0 0 -.11-.45zm-10.89-6.55v2h-8v-2zm-17-7.09v1.26a3.113 3.113 0 0 0 -2 0v-1.84zm-4-28.33a8.108 8.108 0 0 1 4.93 6.42h-4.93zm-4-2.58h2v9h-2zm-2 2.58v6.42h-4.93a8.108 8.108 0 0 1 4.93-6.42zm-7 9.42a1 1 0 0 1 1-1h18a1 1 0 0 1 0 2h-18a1 1 0 0 1 -1-1zm2 6v-3h16v3a8 8 0 0 1 -16 0zm11 9.54v3.96l-3 2.25-3-2.25v-3.96a10.013 10.013 0 0 0 6 0zm-10 3.37 2-.58v1.84a3.113 3.113 0 0 0 -2 0zm8.11 13.64a1 1 0 0 0 -.11.45v11h-11v-15h-2v15h-5v-18.42a5.035 5.035 0 0 1 3.7-4.83l4.3-1.25v3.5a1 1 0 0 0 2 0 1 1 0 0 1 2 0 1 1 0 0 0 2 0v-1l2.4 1.8a1 1 0 0 0 1.2 0l2.4-1.8v1a1 1 0 0 0 2 0 1 1 0 0 1 2 0 1 1 0 0 0 2 0v-3.5l4.31 1.25a5 5 0 0 1 3.42 3.25h-1.73a1 1 0 0 0 -1 1v3h-10a.988.988 0 0 0 -.89.55zm11.89 11.45h-10v-10.76l1.62-3.24h6.76l1.62 3.24zm20 0h-18v-7h6a3 3 0 0 0 6 0h6zm-10-7v-2a1 1 0 0 1 2 0v2a1 1 0 0 1 -2 0zm10-2h-6a3 3 0 0 0 -6 0h-6v-2a1 1 0 0 0 -.11-.45l-1.27-2.55h17.76l1.62 3.24z"/></svg>