<?xml version="1.0"?>
<svg xmlns="http://www.w3.org/2000/svg" viewBox="0 0 64 64" width="512" height="512"><g id="Social_integration" data-name="Social integration"><path d="M10,50a4,4,0,1,0,4,4A4,4,0,0,0,10,50Zm0,6a2,2,0,1,1,2-2A2,2,0,0,1,10,56Z"/><path d="M59.969,37A4.985,4.985,0,0,0,57,28H40.133l1.016-8.132A7,7,0,0,0,34.2,12h-.437a3,3,0,0,0-2.977,2.628l-.468,3.736A11.017,11.017,0,0,1,19.406,28H18V25a1,1,0,0,0-1-1H3a1,1,0,0,0-1,1V61a1,1,0,0,0,1,1H17a1,1,0,0,0,1-1V58.349c.027,0,.053.014.08.016a3.927,3.927,0,0,1,1.939.672A16.936,16.936,0,0,0,29.609,62H52a5.006,5.006,0,0,0,5-5,4.947,4.947,0,0,0-1.1-3.091,4.967,4.967,0,0,0,2.811-8.23A4.965,4.965,0,0,0,59.969,37ZM60,33a3,3,0,0,1-3,3H49a3,3,0,0,1,0-6h8A3,3,0,0,1,60,33ZM16,60H4V26H16Zm5.147-2.615a5.929,5.929,0,0,0-2.8-1L18,56.27V30h1.406a13.02,13.02,0,0,0,12.9-11.388l.467-3.736A1,1,0,0,1,33.766,14H34.2a5,5,0,0,1,4.962,5.62L38.01,28.856l-.8,4.4A7,7,0,0,1,30.323,39H29a1,1,0,0,0,0,2h1.323a9,9,0,0,0,8.855-7.39L39.834,30h5.192a4.932,4.932,0,0,0,1,7,4.939,4.939,0,0,0-.741,7.321,4.944,4.944,0,0,0-2.189,7.77A5,5,0,0,0,39,57a4.948,4.948,0,0,0,1.026,3H29.609A14.936,14.936,0,0,1,21.147,57.385ZM52,60H44a3,3,0,0,1,0-6h8a3,3,0,0,1,0,6Zm3-8H47a3,3,0,0,1,0-6h8a3,3,0,0,1,0,6Zm2-8H49a3,3,0,0,1,0-6h8a3,3,0,0,1,0,6Z"/><path d="M35,10a1,1,0,0,0,1-1V3a1,1,0,0,0-2,0V9A1,1,0,0,0,35,10Z"/><path d="M26.515,12.929a1,1,0,1,0,1.414-1.414L23.687,7.272a1,1,0,0,0-1.415,1.414Z"/><path d="M18,21h6a1,1,0,0,0,0-2H18a1,1,0,0,0,0,2Z"/><path d="M42.778,13.222a1,1,0,0,0,.707-.293l4.243-4.243a1,1,0,0,0-1.415-1.414l-4.242,4.243a1,1,0,0,0,.707,1.707Z"/><path d="M45,20a1,1,0,0,0,1,1h6a1,1,0,0,0,0-2H46A1,1,0,0,0,45,20Z"/></g></svg>
