<svg id="Layer_1" enable-background="new 0 0 512.002 512.002" height="512" viewBox="0 0 512.002 512.002" width="512" xmlns="http://www.w3.org/2000/svg"><g><g><path d="m438.11 0h-346.328c-25.243 0-45.781 20.538-45.781 45.782v380.436c0 25.244 20.538 45.781 45.781 45.781h103.101v30.003c0 5.522 4.477 10 10 10h142.235c5.523 0 10-4.478 10-10v-30.003h80.99c15.379 0 27.891-12.512 27.891-27.891v-416.216c.002-15.38-12.51-27.892-27.889-27.892zm-243.226 451.999h-103.102c-14.216 0-25.781-11.565-25.781-25.781s11.565-25.782 25.781-25.782h103.101zm24.588-194.509-11.382-144.148c-.194-2.451.972-4.271 1.984-5.365 1.63-1.765 3.961-2.818 6.234-2.818 4.809 0 7.779 4.972 8.229 9.883l8.073 88.183c.482 5.27 4.988 9.236 10.273 9.084 5.288-.166 9.531-4.423 9.682-9.711l3.311-116.517c.147-5.188 3.745-9.254 8.191-9.254s8.044 4.065 8.191 9.255l3.311 116.516c.152 5.346 4.484 9.627 9.832 9.715 5.36.135 9.818-4.048 10.146-9.387l5.438-88.585c.789-8.086 5.326-10.678 9.322-10.393 1.255.088 7.493.942 7.093 9.131l-2.167 44.33c-.002.033-.004.067-.005.102l-2.167 44.314c-.27 5.517 3.983 10.207 9.5 10.477 5.507.253 10.207-3.983 10.477-9.5l2.158-44.14c.833-8.234 6.084-8.902 8.307-8.79 1.208.056 7.198.704 7.279 8.063l-2.208 63.246c-.004.116-.006.232-.006.349 0 20.274-1.144 32.98-4.709 52.291-1.478 8.008-4.444 16.205-7.584 24.885-3.631 10.036-7.352 20.331-8.98 31.057h-102.53c-3.105-18.851-14.777-27.239-25.253-34.753-9.571-6.865-18.612-13.35-24.177-28.626-6.113-16.78-12.626-25.153-16.937-30.693-.619-.796-1.187-1.526-1.676-2.184 1.44-1.834 5.91-4.717 11.328-3.547 8.721 1.881 11 5.149 15.138 11.085 3.536 5.071 7.806 11.196 16.242 16.657l.108 1.363c.435 5.506 5.247 9.621 10.756 9.182 5.502-.435 9.613-5.251 9.178-10.757zm-4.588 92.945c0-.346.327-.673.673-.673h.004.04 117.556c1.017.354 2.105.558 3.242.563h.043c.218 0 .431-.019.645-.032.012.048.032.094.032.143v30.001h-122.235zm0 141.567v-91.566h122.235v91.566zm142.235-40.003v-51.563h48.879v51.563h-48.879c.001 0 .001 0 0 0zm88.882-7.891c0 4.351-3.54 7.891-7.891 7.891h-12.111v-51.563h12.111c2.739 0 5.388-.397 7.891-1.137zm0-71.563c0 4.351-3.54 7.891-7.891 7.891h-80.99v-30.001c0-7.511-4.039-14.078-10.046-17.699 1.329-8.75 4.589-17.785 8.005-27.226 3.278-9.061 6.668-18.429 8.445-28.059 3.759-20.362 5.034-34.452 5.041-55.746l2.209-63.271c.004-.116.006-.232.006-.349 0-17.719-13.265-27.596-26.368-28.194-2.607-.118-5.262.143-7.851.783l.813-16.62c.894-18.291-12.558-29.139-25.669-30.059-6.719-.471-13.707 1.534-19.328 6.021l-.128-4.504c-.457-16.087-12.836-28.688-28.183-28.688s-27.727 12.601-28.183 28.687l-.223 7.86c-5.027-5.152-11.803-8.215-19.352-8.215-7.868 0-15.494 3.369-20.923 9.244-5.26 5.691-7.829 12.977-7.233 20.514l8.761 110.951c-4.589-6.088-11.078-12.532-24.65-15.459-14.354-3.096-26.769 4.092-32.226 12.079-4.659 6.818-4.984 14.602-.871 20.821 1.04 1.571 2.207 3.072 3.443 4.661 3.753 4.824 8.894 11.433 13.931 25.259 7.68 21.081 20.783 30.48 31.313 38.032 9.164 6.574 15.3 10.983 17.133 21.441-6.037 3.613-10.101 10.199-10.101 17.732v30.001h-88.881v-190.673c0-5.522-4.477-10-10-10s-10 4.478-10 10v191.047c-7.347.93-14.159 3.602-20.001 7.597v-342.621c0-12.229 8.56-22.489 20.001-25.121v79.097c0 5.522 4.477 10 10 10s10-4.478 10-10v-79.758h332.106c4.351 0 7.891 3.54 7.891 7.892z"/><path d="m96.002 134.759c-5.523 0-10 4.48-10 10.003s4.477 10 10 10 10-4.478 10-10v-.007c0-5.523-4.477-9.996-10-9.996z"/></g></g></svg>